PathFileType	4	(X/Y/Z)	 2.2Hzhigh3min.trc
DataRate	CameraRate	NumFrames	NumMarkers	Units	OrigDataRate	OrigDataStartFrame	OrigNumFrames
200	200	9	35	m	200	876	1000
Frame#	Time	C7			LSH			RSH			MAN			RASI			LASI			HIPR			HIPL			RPSI			LPSI			COX			RTHI1			RTHI2			RTHI3			RTHI4			RSHA1			RSHA2			RSHA3			RSHA4			RHEEL			RMET5			RMET1			RTOE			LTHI1			LTHI2			LTHI3			LTHI4			LSHA1			LSHA2			LSHA3			LSHA4			LHEEL			LMET5			LMET1			LTOE			
		X1	Y1	Z1	X2	Y2	Z2	X3	Y3	Z3	X4	Y4	Z4	X5	Y5	Z5	X6	Y6	Z6	X7	Y7	Z7	X8	Y8	Z8	X9	Y9	Z9	X10	Y10	Z10	X11	Y11	Z11	X12	Y12	Z12	X13	Y13	Z13	X14	Y14	Z14	X15	Y15	Z15	X16	Y16	Z16	X17	Y17	Z17	X18	Y18	Z18	X19	Y19	Z19	X20	Y20	Z20	X21	Y21	Z21	X22	Y22	Z22	X23	Y23	Z23	X24	Y24	Z24	X25	Y25	Z25	X26	Y26	Z26	X27	Y27	Z27	X28	Y28	Z28	X29	Y29	Z29	X30	Y30	Z30	X31	Y31	Z31	X32	Y32	Z32	X33	Y33	Z33	X34	Y34	Z34	X35	Y35	Z35	
876	4.3800	-0.399517	1.334600	-0.545836	-0.324294	1.301068	-0.720220	-0.343117	1.305099	-0.372885	-0.281628	1.287598	-0.544740	-0.261641	0.904682	-0.463870	-0.257256	0.909794	-0.641304	-0.329794	0.948112	-0.415058	-0.311453	0.959491	-0.676570	-0.409037	0.927478	-0.483776	-0.403002	0.936823	-0.599339	-0.411041	0.939990	-0.542361	-0.323422	0.723173	-0.375648	-0.311049	0.662514	-0.374493	-0.242562	0.683507	-0.391409	-0.262715	0.740589	-0.390623	-0.343668	0.310350	-0.357645	-0.369078	0.275575	-0.361498	-0.316989	0.247269	-0.376196	-0.297149	0.282482	-0.375409	-0.502262	0.100242	-0.419668	-0.361434	0.030218	-0.351419	-0.325982	0.034133	-0.427662	-0.302085	0.026308	-0.418130	-0.336228	0.677108	-0.715883	-0.321835	0.619852	-0.711636	-0.251998	0.637695	-0.716823	-0.273875	0.694662	-0.722284	-0.372634	0.286743	-0.714411	-0.393272	0.252373	-0.710048	-0.335820	0.226473	-0.706537	-0.322266	0.268160	-0.712795	-0.488176	0.092079	-0.657810	-0.346625	0.028231	-0.728153	-0.307435	0.035209	-0.657998	-0.285117	0.026463	-0.668375	
877	4.3850	-0.399627	1.329037	-0.545791	-0.324458	1.295788	-0.720426	-0.342778	1.299617	-0.372684	-0.281595	1.281931	-0.544819	-0.261630	0.898762	-0.463437	-0.257618	0.904012	-0.642113	-0.330602	0.941197	-0.414574	-0.312484	0.952917	-0.677514	-0.409974	0.921626	-0.483535	-0.403979	0.931341	-0.599277	-0.411718	0.934681	-0.542210	-0.324362	0.718033	-0.375289	-0.311872	0.657402	-0.374347	-0.243400	0.678576	-0.391062	-0.263655	0.735623	-0.390101	-0.345290	0.305616	-0.358321	-0.370737	0.270865	-0.362393	-0.318608	0.242502	-0.376824	-0.298789	0.277648	-0.375820	-0.504520	0.095524	-0.421611	-0.362273	0.029854	-0.351305	-0.326166	0.034080	-0.427893	-0.302095	0.026373	-0.418050	-0.336901	0.672114	-0.715716	-0.322289	0.614884	-0.711250	-0.252568	0.632939	-0.717130	-0.274671	0.689823	-0.722697	-0.372740	0.282418	-0.713825	-0.393565	0.248177	-0.709349	-0.336236	0.221998	-0.705498	-0.322467	0.263599	-0.711954	-0.489672	0.088270	-0.656325	-0.347172	0.028001	-0.728046	-0.307731	0.035158	-0.657698	-0.285223	0.026452	-0.668353	
878	4.3900	-0.399691	1.324059	-0.545776	-0.324588	1.291048	-0.720617	-0.342396	1.294681	-0.372645	-0.281585	1.276883	-0.544920	-0.261615	0.893394	-0.463116	-0.257917	0.898869	-0.642900	-0.331348	0.934900	-0.414065	-0.313424	0.946946	-0.678446	-0.410697	0.916754	-0.483310	-0.404763	0.926774	-0.599176	-0.412277	0.930268	-0.542049	-0.325437	0.713660	-0.375166	-0.312940	0.653038	-0.374353	-0.244419	0.674260	-0.390773	-0.264679	0.731306	-0.389732	-0.347130	0.301244	-0.359061	-0.372533	0.266454	-0.363402	-0.320265	0.238139	-0.377380	-0.300495	0.273281	-0.376209	-0.506371	0.090948	-0.423707	-0.363068	0.029576	-0.351278	-0.326309	0.034061	-0.428094	-0.302094	0.026436	-0.417947	-0.337718	0.668009	-0.715380	-0.322997	0.610759	-0.710793	-0.253365	0.628883	-0.717426	-0.275589	0.685731	-0.722997	-0.373238	0.278661	-0.712980	-0.394192	0.244497	-0.708339	-0.336944	0.218093	-0.704540	-0.323039	0.259628	-0.711168	-0.490966	0.084643	-0.654548	-0.347777	0.027834	-0.727839	-0.307976	0.035145	-0.657432	-0.285323	0.026448	-0.668384	
879	4.3950	-0.399700	1.319737	-0.545794	-0.324655	1.286891	-0.720784	-0.342138	1.290349	-0.372591	-0.281597	1.272513	-0.545024	-0.261612	0.888714	-0.462955	-0.258157	0.894501	-0.643598	-0.331988	0.929456	-0.413539	-0.314221	0.941799	-0.679291	-0.411217	0.912872	-0.483127	-0.405375	0.923110	-0.599040	-0.412752	0.926696	-0.541891	-0.326622	0.710026	-0.375299	-0.314193	0.649386	-0.374533	-0.245569	0.670570	-0.390504	-0.265761	0.727627	-0.389516	-0.349112	0.297373	-0.359844	-0.374410	0.262528	-0.364469	-0.321939	0.234298	-0.377841	-0.302229	0.269458	-0.376541	-0.507844	0.086616	-0.425802	-0.363801	0.029368	-0.351346	-0.326405	0.034070	-0.428268	-0.302079	0.026491	-0.417831	-0.338632	0.664669	-0.714890	-0.323867	0.607391	-0.710302	-0.254315	0.625497	-0.717725	-0.276589	0.682337	-0.723182	-0.374078	0.275494	-0.711903	-0.395094	0.241362	-0.707075	-0.337895	0.214796	-0.703675	-0.323933	0.256291	-0.710444	-0.492029	0.081264	-0.652539	-0.348417	0.027727	-0.727549	-0.308155	0.035154	-0.657198	-0.285392	0.026443	-0.668458	
880	4.4000	-0.399659	1.316123	-0.545846	-0.324644	1.283353	-0.720927	-0.342013	1.286638	-0.372510	-0.281628	1.268850	-0.545115	-0.261626	0.884849	-0.462969	-0.258344	0.891012	-0.644147	-0.332444	0.925091	-0.413036	-0.314791	0.937720	-0.679976	-0.411584	0.909926	-0.482989	-0.405832	0.920317	-0.598884	-0.413144	0.923918	-0.541746	-0.327884	0.707059	-0.375656	-0.315554	0.646391	-0.374860	-0.246790	0.667485	-0.390236	-0.266883	0.724566	-0.389422	-0.351167	0.294146	-0.360704	-0.376308	0.259206	-0.365571	-0.323601	0.231066	-0.378188	-0.303953	0.266275	-0.376810	-0.508966	0.082705	-0.427869	-0.364456	0.029226	-0.351496	-0.326453	0.034110	-0.428435	-0.302047	0.026530	-0.417714	-0.339619	0.662009	-0.714301	-0.324847	0.604707	-0.709834	-0.255371	0.622754	-0.718045	-0.277647	0.679587	-0.723283	-0.375181	0.272906	-0.710669	-0.396198	0.238773	-0.705636	-0.339015	0.212110	-0.702885	-0.325068	0.253574	-0.709768	-0.492862	0.078198	-0.650396	-0.349059	0.027669	-0.727198	-0.308261	0.035176	-0.656993	-0.285422	0.026437	-0.668561	
881	4.4050	-0.399561	1.313238	-0.545929	-0.324550	1.280466	-0.721053	-0.341947	1.283496	-0.372587	-0.281656	1.265934	-0.545186	-0.261663	0.881889	-0.463130	-0.258480	0.888448	-0.644522	-0.332644	0.921960	-0.412618	-0.315094	0.934856	-0.680425	-0.411849	0.907818	-0.482893	-0.406152	0.918340	-0.598728	-0.413462	0.921869	-0.541624	-0.329189	0.704689	-0.376179	-0.316958	0.644001	-0.375297	-0.248037	0.664999	-0.389954	-0.268031	0.722104	-0.389407	-0.353167	0.291609	-0.361569	-0.378160	0.256589	-0.366652	-0.325216	0.228513	-0.378423	-0.305625	0.263785	-0.377008	-0.509760	0.079279	-0.429817	-0.365029	0.029140	-0.351702	-0.326459	0.034171	-0.428596	-0.302004	0.026553	-0.417602	-0.340665	0.659990	-0.713712	-0.325899	0.602663	-0.709418	-0.256497	0.620624	-0.718393	-0.278754	0.677457	-0.723369	-0.376483	0.270843	-0.709358	-0.397437	0.236672	-0.704114	-0.340228	0.209986	-0.702159	-0.326379	0.251451	-0.709144	-0.493481	0.075494	-0.648223	-0.349662	0.027651	-0.726816	-0.308301	0.035202	-0.656818	-0.285416	0.026429	-0.668683	
882	4.4100	-0.399422	1.311101	-0.546038	-0.324373	1.278260	-0.721171	-0.341942	1.281086	-0.372667	-0.281669	1.263791	-0.545230	-0.261724	0.879857	-0.463374	-0.258573	0.886810	-0.644723	-0.332560	0.920112	-0.412338	-0.315089	0.933279	-0.680597	-0.412044	0.906437	-0.482835	-0.406362	0.917098	-0.598596	-0.413726	0.920483	-0.541534	-0.330521	0.702900	-0.376789	-0.318355	0.642193	-0.375812	-0.249284	0.663129	-0.389661	-0.269210	0.720238	-0.389421	-0.355068	0.289812	-0.362419	-0.379928	0.254711	-0.367682	-0.326750	0.226661	-0.378556	-0.307197	0.262003	-0.377141	-0.510343	0.076468	-0.431559	-0.365518	0.029095	-0.351936	-0.326427	0.034244	-0.428739	-0.301955	0.026557	-0.417495	-0.341765	0.658594	-0.713186	-0.327021	0.601262	-0.709060	-0.257686	0.619107	-0.718749	-0.279903	0.675947	-0.723486	-0.377910	0.269278	-0.708079	-0.398753	0.235036	-0.702621	-0.341484	0.208401	-0.701499	-0.327798	0.249889	-0.708576	-0.493911	0.073207	-0.646129	-0.350204	0.027655	-0.726431	-0.308289	0.035227	-0.656672	-0.285385	0.026420	-0.668813	
883	4.4150	-0.399263	1.309728	-0.546170	-0.324114	1.276761	-0.721282	-0.341984	1.279608	-0.372559	-0.281670	1.262440	-0.545246	-0.261807	0.878724	-0.463628	-0.258623	0.886042	-0.644780	-0.332225	0.919453	-0.412230	-0.314784	0.932928	-0.680494	-0.412203	0.905697	-0.482808	-0.406486	0.916537	-0.598508	-0.413929	0.919744	-0.541479	-0.331872	0.701706	-0.377403	-0.319726	0.640978	-0.376383	-0.250529	0.661912	-0.389361	-0.270414	0.718997	-0.389415	-0.356825	0.288715	-0.363197	-0.381566	0.253554	-0.368616	-0.328189	0.225492	-0.378614	-0.308676	0.260888	-0.377186	-0.510713	0.074249	-0.433160	-0.365918	0.029077	-0.352177	-0.326355	0.034324	-0.428859	-0.301893	0.026553	-0.417402	-0.342917	0.657863	-0.712784	-0.328222	0.600543	-0.708774	-0.258943	0.618236	-0.719097	-0.281087	0.675095	-0.723657	-0.379418	0.268170	-0.706915	-0.400103	0.233863	-0.701270	-0.342757	0.207344	-0.700933	-0.329272	0.248864	-0.708088	-0.494176	0.071391	-0.644248	-0.350668	0.027668	-0.726080	-0.308245	0.035246	-0.656559	-0.285338	0.026411	-0.668943	
884	4.4200	-0.399094	1.309122	-0.546320	-0.323775	1.275989	-0.721383	-0.342039	1.278762	-0.372661	-0.281627	1.261886	-0.545242	-0.261902	0.878413	-0.463826	-0.258624	0.886064	-0.644724	-0.331706	0.919791	-0.412311	-0.314258	0.933615	-0.680170	-0.412330	0.905561	-0.482810	-0.406519	0.916631	-0.598482	-0.414067	0.919649	-0.541463	-0.333215	0.701146	-0.377983	-0.321069	0.640413	-0.376932	-0.251764	0.661362	-0.389082	-0.271626	0.718425	-0.389375	-0.358428	0.288270	-0.363866	-0.383062	0.253047	-0.369414	-0.329513	0.224983	-0.378615	-0.310043	0.260429	-0.377156	-0.510885	0.072640	-0.434614	-0.366222	0.029079	-0.352400	-0.326248	0.034405	-0.428967	-0.301816	0.026544	-0.417332	-0.344110	0.657845	-0.712535	-0.329513	0.600527	-0.708574	-0.260265	0.618019	-0.719421	-0.282285	0.674915	-0.723885	-0.380964	0.267553	-0.705985	-0.401465	0.233161	-0.700161	-0.344030	0.206817	-0.700511	-0.330766	0.248385	-0.707727	-0.494321	0.070054	-0.642702	-0.351030	0.027686	-0.725789	-0.308184	0.035261	-0.656485	-0.285283	0.026403	-0.669064	
